solid cylinder
  facet normal 0.99518472667219682 0.09801714032956059 0
    outer loop
      vertex 0.05 0 0
      vertex 0.049039264020161524 0.0097545161008064131 0
      vertex 0.049039264020161524 0.0097545161008064131 0.1
    endloop
  endfacet
  facet normal 0.99518472667219682 0.09801714032956059 0
    outer loop
      vertex 0.05 0 0
      vertex 0.049039264020161524 0.0097545161008064131 0.1
      vertex 0.05 0 0.1
    endloop
  endfacet
  facet normal 0 0 1
    outer loop
      vertex 0 0 0.1
      vertex 0.05 0 0.1
      vertex 0.049039264020161524 0.0097545161008064131 0.1
    endloop
  endfacet
  facet normal 0 0 -1
    outer loop
      vertex 0 0 0
      vertex 0.049039264020161524 0.0097545161008064131 0
      vertex 0.05 0 0
    endloop
  endfacet
  facet normal 0.95694033573220882 0.29028467725446233 0
    outer loop
      vertex 0.049039264020161524 0.0097545161008064131 0
      vertex 0.046193976625564341 0.019134171618254491 0
      vertex 0.046193976625564341 0.019134171618254491 0.1
    endloop
  endfacet
  facet normal 0.95694033573220882 0.29028467725446233 0
    outer loop
      vertex 0.049039264020161524 0.0097545161008064131 0
      vertex 0.046193976625564341 0.019134171618254491 0.1
      vertex 0.049039264020161524 0.0097545161008064131 0.1
    endloop
  endfacet
  facet normal 0 0 1
    outer loop
      vertex 0 0 0.1
      vertex 0.049039264020161524 0.0097545161008064131 0.1
      vertex 0.046193976625564341 0.019134171618254491 0.1
    endloop
  endfacet
  facet normal 0 0 -1
    outer loop
      vertex 0 0 0
      vertex 0.046193976625564341 0.019134171618254491 0
      vertex 0.049039264020161524 0.0097545161008064131 0
    endloop
  endfacet
  facet normal 0.881921264348355 0.4713967368259977 0
    outer loop
      vertex 0.046193976625564341 0.019134171618254491 0
      vertex 0.041573480615127265 0.027778511650980109 0
      vertex 0.041573480615127265 0.027778511650980109 0.1
    endloop
  endfacet
  facet normal 0.881921264348355 0.4713967368259977 0
    outer loop
      vertex 0.046193976625564341 0.019134171618254491 0
      vertex 0.041573480615127265 0.027778511650980109 0.1
      vertex 0.046193976625564341 0.019134171618254491 0.1
    endloop
  endfacet
  facet normal 0 0 1
    outer loop
      vertex 0 0 0.1
      vertex 0.046193976625564341 0.019134171618254491 0.1
      vertex 0.041573480615127265 0.027778511650980109 0.1
    endloop
  endfacet
  facet normal 0 0 -1
    outer loop
      vertex 0 0 0
      vertex 0.041573480615127265 0.027778511650980109 0
      vertex 0.046193976625564341 0.019134171618254491 0
    endloop
  endfacet
  facet normal 0.773010453362737 0.63439328416364538 0
    outer loop
      vertex 0.041573480615127265 0.027778511650980109 0
      vertex 0.035355339059327383 0.035355339059327376 0
      vertex 0.035355339059327383 0.035355339059327376 0.1
    endloop
  endfacet
  facet normal 0.773010453362737 0.63439328416364538 0
    outer loop
      vertex 0.041573480615127265 0.027778511650980109 0
      vertex 0.035355339059327383 0.035355339059327376 0.1
      vertex 0.041573480615127265 0.027778511650980109 0.1
    endloop
  endfacet
  facet normal 0 0 1
    outer loop
      vertex 0 0 0.1
      vertex 0.041573480615127265 0.027778511650980109 0.1
      vertex 0.035355339059327383 0.035355339059327376 0.1
    endloop
  endfacet
  facet normal 0 0 -1
    outer loop
      vertex 0 0 0
      vertex 0.035355339059327383 0.035355339059327376 0
      vertex 0.041573480615127265 0.027778511650980109 0
    endloop
  endfacet
  facet normal 0.63439328416364549 0.773010453362737 0
    outer loop
      vertex 0.035355339059327383 0.035355339059327376 0
      vertex 0.027778511650980116 0.041573480615127265 0
      vertex 0.027778511650980116 0.041573480615127265 0.1
    endloop
  endfacet
  facet normal 0.63439328416364549 0.773010453362737 0
    outer loop
      vertex 0.035355339059327383 0.035355339059327376 0
      vertex 0.027778511650980116 0.041573480615127265 0.1
      vertex 0.035355339059327383 0.035355339059327376 0.1
    endloop
  endfacet
  facet normal 0 0 1
    outer loop
      vertex 0 0 0.1
      vertex 0.035355339059327383 0.035355339059327376 0.1
      vertex 0.027778511650980116 0.041573480615127265 0.1
    endloop
  endfacet
  facet normal 0 0 -1
    outer loop
      vertex 0 0 0
      vertex 0.027778511650980116 0.041573480615127265 0
      vertex 0.035355339059327383 0.035355339059327376 0
    endloop
  endfacet
  facet normal 0.4713967368259977 0.88192126434835494 0
    outer loop
      vertex 0.027778511650980116 0.041573480615127265 0
      vertex 0.019134171618254495 0.046193976625564341 0
      vertex 0.019134171618254495 0.046193976625564341 0.1
    endloop
  endfacet
  facet normal 0.4713967368259977 0.88192126434835494 0
    outer loop
      vertex 0.027778511650980116 0.041573480615127265 0
      vertex 0.019134171618254495 0.046193976625564341 0.1
      vertex 0.027778511650980116 0.041573480615127265 0.1
    endloop
  endfacet
  facet normal 0 0 1
    outer loop
      vertex 0 0 0.1
      vertex 0.027778511650980116 0.041573480615127265 0.1
      vertex 0.019134171618254495 0.046193976625564341 0.1
    endloop
  endfacet
  facet normal 0 0 -1
    outer loop
      vertex 0 0 0
      vertex 0.019134171618254495 0.046193976625564341 0
      vertex 0.027778511650980116 0.041573480615127265 0
    endloop
  endfacet
  facet normal 0.29028467725446239 0.95694033573220882 0
    outer loop
      vertex 0.019134171618254495 0.046193976625564341 0
      vertex 0.0097545161008064166 0.049039264020161524 0
      vertex 0.0097545161008064166 0.049039264020161524 0.1
    endloop
  endfacet
  facet normal 0.29028467725446239 0.95694033573220882 0
    outer loop
      vertex 0.019134171618254495 0.046193976625564341 0
      vertex 0.0097545161008064166 0.049039264020161524 0.1
      vertex 0.019134171618254495 0.046193976625564341 0.1
    endloop
  endfacet
  facet normal 0 0 1
    outer loop
      vertex 0 0 0.1
      vertex 0.019134171618254495 0.046193976625564341 0.1
      vertex 0.0097545161008064166 0.049039264020161524 0.1
    endloop
  endfacet
  facet normal 0 0 -1
    outer loop
      vertex 0 0 0
      vertex 0.0097545161008064166 0.049039264020161524 0
      vertex 0.019134171618254495 0.046193976625564341 0
    endloop
  endfacet
  facet normal 0.098017140329560659 0.99518472667219682 0
    outer loop
      vertex 0.0097545161008064166 0.049039264020161524 0
      vertex 3.0615158845559432E-18 0.05 0
      vertex 3.0615158845559432E-18 0.05 0.1
    endloop
  endfacet
  facet normal 0.098017140329560659 0.99518472667219682 0
    outer loop
      vertex 0.0097545161008064166 0.049039264020161524 0
      vertex 3.0615158845559432E-18 0.05 0.1
      vertex 0.0097545161008064166 0.049039264020161524 0.1
    endloop
  endfacet
  facet normal 0 0 1
    outer loop
      vertex 0 0 0.1
      vertex 0.0097545161008064166 0.049039264020161524 0.1
      vertex 3.0615158845559432E-18 0.05 0.1
    endloop
  endfacet
  facet normal 0 0 -1
    outer loop
      vertex 0 0 0
      vertex 3.0615158845559432E-18 0.05 0
      vertex 0.0097545161008064166 0.049039264020161524 0
    endloop
  endfacet
  facet normal -0.098017140329560534 0.99518472667219682 0
    outer loop
      vertex 3.0615158845559432E-18 0.05 0
      vertex -0.00975451610080641 0.049039264020161524 0
      vertex -0.00975451610080641 0.049039264020161524 0.1
    endloop
  endfacet
  facet normal -0.098017140329560534 0.99518472667219682 0
    outer loop
      vertex 3.0615158845559432E-18 0.05 0
      vertex -0.00975451610080641 0.049039264020161524 0.1
      vertex 3.0615158845559432E-18 0.05 0.1
    endloop
  endfacet
  facet normal 0 0 1
    outer loop
      vertex 0 0 0.1
      vertex 3.0615158845559432E-18 0.05 0.1
      vertex -0.00975451610080641 0.049039264020161524 0.1
    endloop
  endfacet
  facet normal 0 0 -1
    outer loop
      vertex 0 0 0
      vertex -0.00975451610080641 0.049039264020161524 0
      vertex 3.0615158845559432E-18 0.05 0
    endloop
  endfacet
  facet normal -0.29028467725446228 0.95694033573220882 0
    outer loop
      vertex -0.00975451610080641 0.049039264020161524 0
      vertex -0.019134171618254488 0.046193976625564341 0
      vertex -0.019134171618254488 0.046193976625564341 0.1
    endloop
  endfacet
  facet normal -0.29028467725446228 0.95694033573220882 0
    outer loop
      vertex -0.00975451610080641 0.049039264020161524 0
      vertex -0.019134171618254488 0.046193976625564341 0.1
      vertex -0.00975451610080641 0.049039264020161524 0.1
    endloop
  endfacet
  facet normal 0 0 1
    outer loop
      vertex 0 0 0.1
      vertex -0.00975451610080641 0.049039264020161524 0.1
      vertex -0.019134171618254488 0.046193976625564341 0.1
    endloop
  endfacet
  facet normal 0 0 -1
    outer loop
      vertex 0 0 0
      vertex -0.019134171618254488 0.046193976625564341 0
      vertex -0.00975451610080641 0.049039264020161524 0
    endloop
  endfacet
  facet normal -0.47139673682599748 0.88192126434835516 0
    outer loop
      vertex -0.019134171618254488 0.046193976625564341 0
      vertex -0.0277785116509801 0.041573480615127278 0
      vertex -0.0277785116509801 0.041573480615127278 0.1
    endloop
  endfacet
  facet normal -0.47139673682599748 0.88192126434835516 0
    outer loop
      vertex -0.019134171618254488 0.046193976625564341 0
      vertex -0.0277785116509801 0.041573480615127278 0.1
      vertex -0.019134171618254488 0.046193976625564341 0.1
    endloop
  endfacet
  facet normal 0 0 1
    outer loop
      vertex 0 0 0.1
      vertex -0.019134171618254488 0.046193976625564341 0.1
      vertex -0.0277785116509801 0.041573480615127278 0.1
    endloop
  endfacet
  facet normal 0 0 -1
    outer loop
      vertex 0 0 0
      vertex -0.0277785116509801 0.041573480615127278 0
      vertex -0.019134171618254488 0.046193976625564341 0
    endloop
  endfacet
  facet normal -0.63439328416364527 0.7730104533627371 0
    outer loop
      vertex -0.0277785116509801 0.041573480615127278 0
      vertex -0.035355339059327376 0.035355339059327383 0
      vertex -0.035355339059327376 0.035355339059327383 0.1
    endloop
  endfacet
  facet normal -0.63439328416364527 0.7730104533627371 0
    outer loop
      vertex -0.0277785116509801 0.041573480615127278 0
      vertex -0.035355339059327376 0.035355339059327383 0.1
      vertex -0.0277785116509801 0.041573480615127278 0.1
    endloop
  endfacet
  facet normal 0 0 1
    outer loop
      vertex 0 0 0.1
      vertex -0.0277785116509801 0.041573480615127278 0.1
      vertex -0.035355339059327376 0.035355339059327383 0.1
    endloop
  endfacet
  facet normal 0 0 -1
    outer loop
      vertex 0 0 0
      vertex -0.035355339059327376 0.035355339059327383 0
      vertex -0.0277785116509801 0.041573480615127278 0
    endloop
  endfacet
  facet normal -0.773010453362737 0.63439328416364538 0
    outer loop
      vertex -0.035355339059327376 0.035355339059327383 0
      vertex -0.041573480615127271 0.027778511650980109 0
      vertex -0.041573480615127271 0.027778511650980109 0.1
    endloop
  endfacet
  facet normal -0.773010453362737 0.63439328416364538 0
    outer loop
      vertex -0.035355339059327376 0.035355339059327383 0
      vertex -0.041573480615127271 0.027778511650980109 0.1
      vertex -0.035355339059327376 0.035355339059327383 0.1
    endloop
  endfacet
  facet normal 0 0 1
    outer loop
      vertex 0 0 0.1
      vertex -0.035355339059327376 0.035355339059327383 0.1
      vertex -0.041573480615127271 0.027778511650980109 0.1
    endloop
  endfacet
  facet normal 0 0 -1
    outer loop
      vertex 0 0 0
      vertex -0.041573480615127271 0.027778511650980109 0
      vertex -0.035355339059327376 0.035355339059327383 0
    endloop
  endfacet
  facet normal -0.881921264348355 0.47139673682599764 0
    outer loop
      vertex -0.041573480615127271 0.027778511650980109 0
      vertex -0.046193976625564341 0.019134171618254495 0
      vertex -0.046193976625564341 0.019134171618254495 0.1
    endloop
  endfacet
  facet normal -0.881921264348355 0.47139673682599764 0
    outer loop
      vertex -0.041573480615127271 0.027778511650980109 0
      vertex -0.046193976625564341 0.019134171618254495 0.1
      vertex -0.041573480615127271 0.027778511650980109 0.1
    endloop
  endfacet
  facet normal 0 0 1
    outer loop
      vertex 0 0 0.1
      vertex -0.041573480615127271 0.027778511650980109 0.1
      vertex -0.046193976625564341 0.019134171618254495 0.1
    endloop
  endfacet
  facet normal 0 0 -1
    outer loop
      vertex 0 0 0
      vertex -0.046193976625564341 0.019134171618254495 0
      vertex -0.041573480615127271 0.027778511650980109 0
    endloop
  endfacet
  facet normal -0.95694033573220882 0.29028467725446255 0
    outer loop
      vertex -0.046193976625564341 0.019134171618254495 0
      vertex -0.049039264020161524 0.00975451610080643 0
      vertex -0.049039264020161524 0.00975451610080643 0.1
    endloop
  endfacet
  facet normal -0.95694033573220882 0.29028467725446255 0
    outer loop
      vertex -0.046193976625564341 0.019134171618254495 0
      vertex -0.049039264020161524 0.00975451610080643 0.1
      vertex -0.046193976625564341 0.019134171618254495 0.1
    endloop
  endfacet
  facet normal 0 0 1
    outer loop
      vertex 0 0 0.1
      vertex -0.046193976625564341 0.019134171618254495 0.1
      vertex -0.049039264020161524 0.00975451610080643 0.1
    endloop
  endfacet
  facet normal 0 0 -1
    outer loop
      vertex 0 0 0
      vertex -0.049039264020161524 0.00975451610080643 0
      vertex -0.046193976625564341 0.019134171618254495 0
    endloop
  endfacet
  facet normal -0.99518472667219682 0.098017140329560826 0
    outer loop
      vertex -0.049039264020161524 0.00975451610080643 0
      vertex -0.05 6.1230317691118864E-18 0
      vertex -0.05 6.1230317691118864E-18 0.1
    endloop
  endfacet
  facet normal -0.99518472667219682 0.098017140329560826 0
    outer loop
      vertex -0.049039264020161524 0.00975451610080643 0
      vertex -0.05 6.1230317691118864E-18 0.1
      vertex -0.049039264020161524 0.00975451610080643 0.1
    endloop
  endfacet
  facet normal 0 0 1
    outer loop
      vertex 0 0 0.1
      vertex -0.049039264020161524 0.00975451610080643 0.1
      vertex -0.05 6.1230317691118864E-18 0.1
    endloop
  endfacet
  facet normal 0 0 -1
    outer loop
      vertex 0 0 0
      vertex -0.05 6.1230317691118864E-18 0
      vertex -0.049039264020161524 0.00975451610080643 0
    endloop
  endfacet
  facet normal -0.99518472667219682 -0.09801714032956059 0
    outer loop
      vertex -0.05 6.1230317691118864E-18 0
      vertex -0.049039264020161524 -0.0097545161008064183 0
      vertex -0.049039264020161524 -0.0097545161008064183 0.1
    endloop
  endfacet
  facet normal -0.99518472667219682 -0.09801714032956059 0
    outer loop
      vertex -0.05 6.1230317691118864E-18 0
      vertex -0.049039264020161524 -0.0097545161008064183 0.1
      vertex -0.05 6.1230317691118864E-18 0.1
    endloop
  endfacet
  facet normal 0 0 1
    outer loop
      vertex 0 0 0.1
      vertex -0.05 6.1230317691118864E-18 0.1
      vertex -0.049039264020161524 -0.0097545161008064183 0.1
    endloop
  endfacet
  facet normal 0 0 -1
    outer loop
      vertex 0 0 0
      vertex -0.049039264020161524 -0.0097545161008064183 0
      vertex -0.05 6.1230317691118864E-18 0
    endloop
  endfacet
  facet normal -0.95694033573220882 -0.29028467725446233 0
    outer loop
      vertex -0.049039264020161524 -0.0097545161008064183 0
      vertex -0.046193976625564348 -0.019134171618254484 0
      vertex -0.046193976625564348 -0.019134171618254484 0.1
    endloop
  endfacet
  facet normal -0.95694033573220882 -0.29028467725446233 0
    outer loop
      vertex -0.049039264020161524 -0.0097545161008064183 0
      vertex -0.046193976625564348 -0.019134171618254484 0.1
      vertex -0.049039264020161524 -0.0097545161008064183 0.1
    endloop
  endfacet
  facet normal 0 0 1
    outer loop
      vertex 0 0 0.1
      vertex -0.049039264020161524 -0.0097545161008064183 0.1
      vertex -0.046193976625564348 -0.019134171618254484 0.1
    endloop
  endfacet
  facet normal 0 0 -1
    outer loop
      vertex 0 0 0
      vertex -0.046193976625564348 -0.019134171618254484 0
      vertex -0.049039264020161524 -0.0097545161008064183 0
    endloop
  endfacet
  facet normal -0.88192126434835516 -0.47139673682599742 0
    outer loop
      vertex -0.046193976625564348 -0.019134171618254484 0
      vertex -0.041573480615127278 -0.0277785116509801 0
      vertex -0.041573480615127278 -0.0277785116509801 0.1
    endloop
  endfacet
  facet normal -0.88192126434835516 -0.47139673682599742 0
    outer loop
      vertex -0.046193976625564348 -0.019134171618254484 0
      vertex -0.041573480615127278 -0.0277785116509801 0.1
      vertex -0.046193976625564348 -0.019134171618254484 0.1
    endloop
  endfacet
  facet normal 0 0 1
    outer loop
      vertex 0 0 0.1
      vertex -0.046193976625564348 -0.019134171618254484 0.1
      vertex -0.041573480615127278 -0.0277785116509801 0.1
    endloop
  endfacet
  facet normal 0 0 -1
    outer loop
      vertex 0 0 0
      vertex -0.041573480615127278 -0.0277785116509801 0
      vertex -0.046193976625564348 -0.019134171618254484 0
    endloop
  endfacet
  facet normal -0.7730104533627371 -0.63439328416364527 0
    outer loop
      vertex -0.041573480615127278 -0.0277785116509801 0
      vertex -0.035355339059327383 -0.035355339059327376 0
      vertex -0.035355339059327383 -0.035355339059327376 0.1
    endloop
  endfacet
  facet normal -0.7730104533627371 -0.63439328416364527 0
    outer loop
      vertex -0.041573480615127278 -0.0277785116509801 0
      vertex -0.035355339059327383 -0.035355339059327376 0.1
      vertex -0.041573480615127278 -0.0277785116509801 0.1
    endloop
  endfacet
  facet normal 0 0 1
    outer loop
      vertex 0 0 0.1
      vertex -0.041573480615127278 -0.0277785116509801 0.1
      vertex -0.035355339059327383 -0.035355339059327376 0.1
    endloop
  endfacet
  facet normal 0 0 -1
    outer loop
      vertex 0 0 0
      vertex -0.035355339059327383 -0.035355339059327376 0
      vertex -0.041573480615127278 -0.0277785116509801 0
    endloop
  endfacet
  facet normal -0.63439328416364549 -0.773010453362737 0
    outer loop
      vertex -0.035355339059327383 -0.035355339059327376 0
      vertex -0.027778511650980109 -0.041573480615127265 0
      vertex -0.027778511650980109 -0.041573480615127265 0.1
    endloop
  endfacet
  facet normal -0.63439328416364549 -0.773010453362737 0
    outer loop
      vertex -0.035355339059327383 -0.035355339059327376 0
      vertex -0.027778511650980109 -0.041573480615127265 0.1
      vertex -0.035355339059327383 -0.035355339059327376 0.1
    endloop
  endfacet
  facet normal 0 0 1
    outer loop
      vertex 0 0 0.1
      vertex -0.035355339059327383 -0.035355339059327376 0.1
      vertex -0.027778511650980109 -0.041573480615127265 0.1
    endloop
  endfacet
  facet normal 0 0 -1
    outer loop
      vertex 0 0 0
      vertex -0.027778511650980109 -0.041573480615127265 0
      vertex -0.035355339059327383 -0.035355339059327376 0
    endloop
  endfacet
  facet normal -0.47139673682599786 -0.88192126434835494 0
    outer loop
      vertex -0.027778511650980109 -0.041573480615127265 0
      vertex -0.019134171618254519 -0.046193976625564327 0
      vertex -0.019134171618254519 -0.046193976625564327 0.1
    endloop
  endfacet
  facet normal -0.47139673682599786 -0.88192126434835494 0
    outer loop
      vertex -0.027778511650980109 -0.041573480615127265 0
      vertex -0.019134171618254519 -0.046193976625564327 0.1
      vertex -0.027778511650980109 -0.041573480615127265 0.1
    endloop
  endfacet
  facet normal 0 0 1
    outer loop
      vertex 0 0 0.1
      vertex -0.027778511650980109 -0.041573480615127265 0.1
      vertex -0.019134171618254519 -0.046193976625564327 0.1
    endloop
  endfacet
  facet normal 0 0 -1
    outer loop
      vertex 0 0 0
      vertex -0.019134171618254519 -0.046193976625564327 0
      vertex -0.027778511650980109 -0.041573480615127265 0
    endloop
  endfacet
  facet normal -0.29028467725446283 -0.95694033573220871 0
    outer loop
      vertex -0.019134171618254519 -0.046193976625564327 0
      vertex -0.0097545161008064339 -0.049039264020161517 0
      vertex -0.0097545161008064339 -0.049039264020161517 0.1
    endloop
  endfacet
  facet normal -0.29028467725446283 -0.95694033573220871 0
    outer loop
      vertex -0.019134171618254519 -0.046193976625564327 0
      vertex -0.0097545161008064339 -0.049039264020161517 0.1
      vertex -0.019134171618254519 -0.046193976625564327 0.1
    endloop
  endfacet
  facet normal 0 0 1
    outer loop
      vertex 0 0 0.1
      vertex -0.019134171618254519 -0.046193976625564327 0.1
      vertex -0.0097545161008064339 -0.049039264020161517 0.1
    endloop
  endfacet
  facet normal 0 0 -1
    outer loop
      vertex 0 0 0
      vertex -0.0097545161008064339 -0.049039264020161517 0
      vertex -0.019134171618254519 -0.046193976625564327 0
    endloop
  endfacet
  facet normal -0.0980171403295609 -0.99518472667219682 0
    outer loop
      vertex -0.0097545161008064339 -0.049039264020161517 0
      vertex -9.18454765366783E-18 -0.05 0
      vertex -9.18454765366783E-18 -0.05 0.1
    endloop
  endfacet
  facet normal -0.0980171403295609 -0.99518472667219682 0
    outer loop
      vertex -0.0097545161008064339 -0.049039264020161517 0
      vertex -9.18454765366783E-18 -0.05 0.1
      vertex -0.0097545161008064339 -0.049039264020161517 0.1
    endloop
  endfacet
  facet normal 0 0 1
    outer loop
      vertex 0 0 0.1
      vertex -0.0097545161008064339 -0.049039264020161517 0.1
      vertex -9.18454765366783E-18 -0.05 0.1
    endloop
  endfacet
  facet normal 0 0 -1
    outer loop
      vertex 0 0 0
      vertex -9.18454765366783E-18 -0.05 0
      vertex -0.0097545161008064339 -0.049039264020161517 0
    endloop
  endfacet
  facet normal 0.09801714032956052 -0.99518472667219682 0
    outer loop
      vertex -9.18454765366783E-18 -0.05 0
      vertex 0.0097545161008064166 -0.049039264020161524 0
      vertex 0.0097545161008064166 -0.049039264020161524 0.1
    endloop
  endfacet
  facet normal 0.09801714032956052 -0.99518472667219682 0
    outer loop
      vertex -9.18454765366783E-18 -0.05 0
      vertex 0.0097545161008064166 -0.049039264020161524 0.1
      vertex -9.18454765366783E-18 -0.05 0.1
    endloop
  endfacet
  facet normal 0 0 1
    outer loop
      vertex 0 0 0.1
      vertex -9.18454765366783E-18 -0.05 0.1
      vertex 0.0097545161008064166 -0.049039264020161524 0.1
    endloop
  endfacet
  facet normal 0 0 -1
    outer loop
      vertex 0 0 0
      vertex 0.0097545161008064166 -0.049039264020161524 0
      vertex -9.18454765366783E-18 -0.05 0
    endloop
  endfacet
  facet normal 0.2902846772544625 -0.95694033573220882 0
    outer loop
      vertex 0.0097545161008064166 -0.049039264020161524 0
      vertex 0.0191341716182545 -0.046193976625564334 0
      vertex 0.0191341716182545 -0.046193976625564334 0.1
    endloop
  endfacet
  facet normal 0.2902846772544625 -0.95694033573220882 0
    outer loop
      vertex 0.0097545161008064166 -0.049039264020161524 0
      vertex 0.0191341716182545 -0.046193976625564334 0.1
      vertex 0.0097545161008064166 -0.049039264020161524 0.1
    endloop
  endfacet
  facet normal 0 0 1
    outer loop
      vertex 0 0 0.1
      vertex 0.0097545161008064166 -0.049039264020161524 0.1
      vertex 0.0191341716182545 -0.046193976625564334 0.1
    endloop
  endfacet
  facet normal 0 0 -1
    outer loop
      vertex 0 0 0
      vertex 0.0191341716182545 -0.046193976625564334 0
      vertex 0.0097545161008064166 -0.049039264020161524 0
    endloop
  endfacet
  facet normal 0.47139673682599753 -0.881921264348355 0
    outer loop
      vertex 0.0191341716182545 -0.046193976625564334 0
      vertex 0.027778511650980095 -0.041573480615127278 0
      vertex 0.027778511650980095 -0.041573480615127278 0.1
    endloop
  endfacet
  facet normal 0.47139673682599753 -0.881921264348355 0
    outer loop
      vertex 0.0191341716182545 -0.046193976625564334 0
      vertex 0.027778511650980095 -0.041573480615127278 0.1
      vertex 0.0191341716182545 -0.046193976625564334 0.1
    endloop
  endfacet
  facet normal 0 0 1
    outer loop
      vertex 0 0 0.1
      vertex 0.0191341716182545 -0.046193976625564334 0.1
      vertex 0.027778511650980095 -0.041573480615127278 0.1
    endloop
  endfacet
  facet normal 0 0 -1
    outer loop
      vertex 0 0 0
      vertex 0.027778511650980095 -0.041573480615127278 0
      vertex 0.0191341716182545 -0.046193976625564334 0
    endloop
  endfacet
  facet normal 0.63439328416364515 -0.77301045336273722 0
    outer loop
      vertex 0.027778511650980095 -0.041573480615127278 0
      vertex 0.035355339059327369 -0.035355339059327383 0
      vertex 0.035355339059327369 -0.035355339059327383 0.1
    endloop
  endfacet
  facet normal 0.63439328416364515 -0.77301045336273722 0
    outer loop
      vertex 0.027778511650980095 -0.041573480615127278 0
      vertex 0.035355339059327369 -0.035355339059327383 0.1
      vertex 0.027778511650980095 -0.041573480615127278 0.1
    endloop
  endfacet
  facet normal 0 0 1
    outer loop
      vertex 0 0 0.1
      vertex 0.027778511650980095 -0.041573480615127278 0.1
      vertex 0.035355339059327369 -0.035355339059327383 0.1
    endloop
  endfacet
  facet normal 0 0 -1
    outer loop
      vertex 0 0 0
      vertex 0.035355339059327369 -0.035355339059327383 0
      vertex 0.027778511650980095 -0.041573480615127278 0
    endloop
  endfacet
  facet normal 0.77301045336273688 -0.63439328416364549 0
    outer loop
      vertex 0.035355339059327369 -0.035355339059327383 0
      vertex 0.041573480615127265 -0.027778511650980109 0
      vertex 0.041573480615127265 -0.027778511650980109 0.1
    endloop
  endfacet
  facet normal 0.77301045336273688 -0.63439328416364549 0
    outer loop
      vertex 0.035355339059327369 -0.035355339059327383 0
      vertex 0.041573480615127265 -0.027778511650980109 0.1
      vertex 0.035355339059327369 -0.035355339059327383 0.1
    endloop
  endfacet
  facet normal 0 0 1
    outer loop
      vertex 0 0 0.1
      vertex 0.035355339059327369 -0.035355339059327383 0.1
      vertex 0.041573480615127265 -0.027778511650980109 0.1
    endloop
  endfacet
  facet normal 0 0 -1
    outer loop
      vertex 0 0 0
      vertex 0.041573480615127265 -0.027778511650980109 0
      vertex 0.035355339059327369 -0.035355339059327383 0
    endloop
  endfacet
  facet normal 0.88192126434835483 -0.47139673682599786 0
    outer loop
      vertex 0.041573480615127265 -0.027778511650980109 0
      vertex 0.046193976625564327 -0.019134171618254522 0
      vertex 0.046193976625564327 -0.019134171618254522 0.1
    endloop
  endfacet
  facet normal 0.88192126434835483 -0.47139673682599786 0
    outer loop
      vertex 0.041573480615127265 -0.027778511650980109 0
      vertex 0.046193976625564327 -0.019134171618254522 0.1
      vertex 0.041573480615127265 -0.027778511650980109 0.1
    endloop
  endfacet
  facet normal 0 0 1
    outer loop
      vertex 0 0 0.1
      vertex 0.041573480615127265 -0.027778511650980109 0.1
      vertex 0.046193976625564327 -0.019134171618254522 0.1
    endloop
  endfacet
  facet normal 0 0 -1
    outer loop
      vertex 0 0 0
      vertex 0.046193976625564327 -0.019134171618254522 0
      vertex 0.041573480615127265 -0.027778511650980109 0
    endloop
  endfacet
  facet normal 0.95694033573220871 -0.29028467725446289 0
    outer loop
      vertex 0.046193976625564327 -0.019134171618254522 0
      vertex 0.049039264020161517 -0.0097545161008064374 0
      vertex 0.049039264020161517 -0.0097545161008064374 0.1
    endloop
  endfacet
  facet normal 0.95694033573220871 -0.29028467725446289 0
    outer loop
      vertex 0.046193976625564327 -0.019134171618254522 0
      vertex 0.049039264020161517 -0.0097545161008064374 0.1
      vertex 0.046193976625564327 -0.019134171618254522 0.1
    endloop
  endfacet
  facet normal 0 0 1
    outer loop
      vertex 0 0 0.1
      vertex 0.046193976625564327 -0.019134171618254522 0.1
      vertex 0.049039264020161517 -0.0097545161008064374 0.1
    endloop
  endfacet
  facet normal 0 0 -1
    outer loop
      vertex 0 0 0
      vertex 0.049039264020161517 -0.0097545161008064374 0
      vertex 0.046193976625564327 -0.019134171618254522 0
    endloop
  endfacet
  facet normal 0.99518472667219682 -0.098017140329560826 0
    outer loop
      vertex 0.049039264020161517 -0.0097545161008064374 0
      vertex 0.05 0 0
      vertex 0.05 0 0.1
    endloop
  endfacet
  facet normal 0.99518472667219682 -0.098017140329560826 0
    outer loop
      vertex 0.049039264020161517 -0.0097545161008064374 0
      vertex 0.05 0 0.1
      vertex 0.049039264020161517 -0.0097545161008064374 0.1
    endloop
  endfacet
  facet normal 0 0 1
    outer loop
      vertex 0 0 0.1
      vertex 0.049039264020161517 -0.0097545161008064374 0.1
      vertex 0.05 0 0.1
    endloop
  endfacet
  facet normal 0 0 -1
    outer loop
      vertex 0 0 0
      vertex 0.05 0 0
      vertex 0.049039264020161517 -0.0097545161008064374 0
    endloop
  endfacet
endsolid cylinder
